<?xml version="1.0" encoding="UTF-8"?>
<svg id="Layer_1" xmlns="http://www.w3.org/2000/svg" version="1.1" viewBox="0 0 880.47 337.22">
  <!-- Generator: Adobe Illustrator 30.3.0, SVG Export Plug-In . SVG Version: 2.1.3 Build 182)  -->
  <defs>
    <style>
      .st0, .st1 {
        fill: #993a39;
      }

      .st1 {
        font-family: BookAntiqua, 'Book Antiqua';
        font-size: 31.8px;
      }
    </style>
  </defs>
  <g>
    <g>
      <path class="st0" d="M223.35,276.83c-1.49,0-2.69-1.2-2.69-2.69,0-3.58-6-9.02-22.82-13.56-15.78-4.25-36.81-6.6-59.21-6.6s-43.43,2.34-59.21,6.6c-16.83,4.54-22.82,9.98-22.82,13.56,0,1.49-1.2,2.69-2.69,2.69s-2.69-1.2-2.69-2.69v-116.49c0-23.35,9.09-45.3,25.6-61.81,16.51-16.51,38.46-25.6,61.81-25.6s45.3,9.09,61.81,25.6c16.51,16.51,25.6,38.46,25.6,61.81v116.49c0,1.49-1.2,2.69-2.69,2.69ZM138.63,248.61c22.86,0,44.38,2.41,60.61,6.78,9.76,2.63,16.96,5.81,21.42,9.41v-107.14c0-21.91-8.53-42.51-24.03-58.01-15.49-15.49-36.09-24.03-58-24.03-45.23,0-82.03,36.8-82.03,82.03v107.14c4.47-3.6,11.66-6.77,21.42-9.41,16.22-4.37,37.75-6.78,60.61-6.78Z"/>
      <path class="st0" d="M138.63,299.67c-22.86,0-44.38-2.41-60.61-6.78-17.53-4.73-26.8-11.21-26.8-18.75s9.27-14.02,26.8-18.75c16.22-4.37,37.75-6.78,60.61-6.78s44.38,2.41,60.61,6.78c17.53,4.73,26.8,11.21,26.8,18.75s-9.27,14.02-26.8,18.75c-16.22,4.37-37.75,6.78-60.61,6.78ZM138.63,253.99c-22.4,0-43.43,2.34-59.21,6.6-16.83,4.54-22.82,9.98-22.82,13.56s6,9.02,22.82,13.55c15.78,4.25,36.81,6.6,59.21,6.6s43.43-2.34,59.21-6.6c16.83-4.54,22.82-9.98,22.82-13.55s-6-9.02-22.82-13.56c-15.78-4.25-36.81-6.6-59.21-6.6Z"/>
      <g>
        <path class="st0" d="M178.87,274.14c0,5.99-18.02,10.85-40.24,10.85s-40.24-4.86-40.24-10.85,18.02-10.85,40.24-10.85,40.24,4.86,40.24,10.85Z"/>
        <path class="st0" d="M138.63,287.68c-10.98,0-21.33-1.16-29.16-3.27-9.14-2.46-13.78-5.92-13.78-10.27s4.64-7.81,13.78-10.27c7.82-2.11,18.18-3.27,29.16-3.27s21.33,1.16,29.16,3.27c9.14,2.46,13.78,5.92,13.78,10.27s-4.64,7.8-13.78,10.27c-7.82,2.11-18.18,3.27-29.16,3.27ZM138.63,265.98c-10.52,0-20.38,1.1-27.76,3.09-8.13,2.19-9.8,4.56-9.8,5.08s1.66,2.88,9.8,5.08c7.38,1.99,17.24,3.09,27.76,3.09s20.38-1.1,27.76-3.09c8.14-2.19,9.8-4.56,9.8-5.08s-1.66-2.88-9.8-5.08c-7.38-1.99-17.24-3.09-27.76-3.09Z"/>
      </g>
    </g>
    <g>
      <path class="st0" d="M183,232.33c-16.61-.64-34.23-1.92-52.36-3.82-7.68-.8-15.29-1.89-22.62-3.23-3.86-.71-7.71-1.5-11.46-2.35-1-.23-2.02-.43-3.11-.65-2.51-.51-5.11-1.03-7.57-1.86-.61-.21-1.52-.58-2.32-1.34-1.57-1.5-1.58-3.42-1.59-4.57,0-.15,0-.29,0-.43-.04-1.02-.14-2.03-.24-3.11-.12-1.29-.25-2.62-.28-4-.11-5.1-.05-10.27.18-15.36.16-3.61.41-7.27.74-10.88.02-.27.05-.55.07-.83.24-2.86.53-6.43,2.87-9.08,1.39-1.58,3.12-2.62,4.77-3.51,9.45-5.06,19.82-7.15,28.72-8.53,8.12-1.26,14.73-1.8,20.78-1.72,2.51.04,5.18.21,7.71,1.2,2.34.92,3.92,2.53,5.3,3.95.42.43.82.84,1.23,1.22,1.49,1.38,2.82,2.87,4.11,4.31.75.84,1.46,1.63,2.19,2.4,2.75,2.88,5.62,5.76,8.4,8.54,2.6,2.6,5.29,5.29,7.89,7.99,3.49,3.63,7.04,7.35,10.55,11.05.18.19.35.37.52.54,1.33,1.36,2.83,2.9,2.84,6.02,0,2.39-.07,4.75-.18,7.57-.13,3.24-.34,6.52-.62,9.76-.06.64-.14,1.27-.23,1.87-.13.95-.25,1.84-.24,2.61,0,.08.03.26.05.41.13.96.42,3.22-1.66,4.78-.13.1-.28.19-.43.28-1.15.68-2.36.8-3.29.8-.26,0-.5,0-.71-.02ZM119.68,164.57c-8.41,1.3-18.17,3.26-26.84,7.91-1.17.63-2.36,1.33-3.14,2.21-1.06,1.2-1.25,3.58-1.43,5.69-.02.3-.05.6-.08.88-.32,3.52-.56,7.08-.72,10.61-.22,4.97-.28,10.01-.17,14.98.02,1.16.14,2.33.25,3.57.11,1.11.21,2.26.26,3.44,0,.2,0,.41.01.62,0,.12,0,.27,0,.41,2.07.7,4.46,1.18,6.76,1.64,1.07.22,2.18.44,3.25.68,3.67.83,7.45,1.61,11.22,2.3,7.18,1.31,14.65,2.38,22.17,3.17,18,1.88,35.47,3.16,51.95,3.79,0-.08,0-.17-.01-.26-.03-1.23.13-2.41.29-3.54.08-.56.15-1.09.19-1.58.27-3.14.47-6.33.6-9.48.11-2.74.18-5.03.17-7.31,0-.68,0-.74-1.17-1.94-.18-.19-.37-.38-.57-.59-3.5-3.69-7.05-7.4-10.53-11.02-2.56-2.66-5.23-5.33-7.8-7.91-2.8-2.8-5.7-5.71-8.5-8.64-.8-.84-1.58-1.71-2.32-2.54-1.25-1.4-2.44-2.73-3.72-3.92-.52-.48-.99-.96-1.44-1.43-1.11-1.14-2.08-2.13-3.24-2.59-1.56-.61-3.39-.76-5.65-.79-.39,0-.78,0-1.18,0-5.4,0-11.36.53-18.62,1.66Z"/>
      <path class="st0" d="M184.02,206.77c.66,0,1.32,0,1.98-.03l-.17-5.87c-9.06.26-18.09-1.48-24.94-3.03l-2.99-.67c-15.13-3.4-30.78-6.92-45.45-12.28-7.23-2.64-15.54-6.15-22.42-12.14l-3.86,4.42c7.64,6.66,16.98,10.57,24.26,13.23,15.02,5.49,30.86,9.05,46.17,12.5l2.99.67c6.7,1.51,15.4,3.2,24.42,3.2Z"/>
      <path class="st0" d="M170.27,198.66c-.06.02-.12.04-.18.06-1.82.58-3.81,1.29-4.78,2.95-1.01,1.73-.94,4.14-1.19,6.08-.32,2.42-.63,4.83-.95,7.25-.11.81-.21,1.63-.51,2.39-.14.35-.37.73-.74.76-.63.06-.85-.81-.84-1.45,0-2.24-.12-4.47-.37-6.69-.08-.73-.18-1.46-.43-2.15-.24-.67-.62-1.28-.88-1.95-.58-1.53-.43-3.2-.17-4.78.26-1.6,1.14-2.17,2.54-2.86,1.97-.97,4.04-1.73,6.04-2.62,1.21-.54,3.79-1.18,4.31-2.62-1.16-.63-2.54-.63-3.86-.61-1.49.02-2.99.05-4.48.07-2.1.03-4.2.06-6.29.24-2.11.18-4.21.51-6.31.74-1.23.14-2.5.25-3.58.84-2.71,1.48-4.2,4.52-4.78,7.44-.36,1.8-.55,3.64-1.14,5.37-.09.27-.22.56-.48.67-.16.07-.35.04-.52-.03-.55-.25-.74-.95-.8-1.56-.15-1.43-.03-2.88-.13-4.31-.23-3.22-3.15-5.23-3.28-8.36-.07-1.74.61-3.44,1.61-4.85s2.32-2.56,3.65-3.66c2.47-2.03,5.02-4.01,7.9-5.38.9-.43,1.84-.76,2.68-1.31.21-.14.44-.34.43-.59-.02-.4-.56-.5-.96-.45-4.73.62-9.38,1.76-13.99,3.01-2.35.64-4.7,1.31-7.04,1.96-3.03.84-5.93,1.32-8.73,2.9-1.68.95-4.64,1.93-5.61,3.73-1.16,2.18-1,6.13-.94,8.55.03.98.11,2.1-.38,2.99-.42.78-1.39,1.09-1.79,1.83-.46.86-.24,2.3-.28,3.25-.05,1.33-.11,2.67-.16,4-.03.82-.23,1.85-1.03,2.05-.51.12-1.05-.21-1.33-.66-.28-.45-.36-.99-.42-1.51-.86-6.78-.9-13.66-.05-20.44.58-4.61,2.93-6.28,6.97-7.98,4.91-2.06,10.04-3.52,15.18-4.88,6.57-1.74,13.2-3.34,19.95-4.06,2.27-.24,4.55-.38,6.82-.3,1.2.04,2.41.15,3.52.61,1.11.46,2.1,1.33,2.46,2.49.72,2.33-1.41,3.77-3.2,4.5-1.37.56-2.67,1.37-4.06,1.95-2.91,1.22-5.65,2.8-8.38,4.38-1.61.93-3.24,1.88-4.48,3.27-.17.19-.34.41-.36.66-.04.44.4.8.83.84.84.08,2.12-.54,2.94-.76,1.12-.3,2.23-.62,3.34-.98,1.6-.51,2.78-1.19,4.5-1.28,2.87-.15,5.74-.39,8.62-.43,4.55-.06,9.21.39,13.33,2.37,2.25,1.08,3.73,3.67,1.53,5.73-.96.9-2.26,1.33-3.51,1.73-1.93.61-3.85,1.22-5.78,1.84Z"/>
      <path class="st0" d="M126.33,166.27c-5.27.85-10.5,1.98-15.59,3.29-3.17.81-6.29,1.88-9.2,3.39-2.42,1.26-5.14,2.52-6.62,4.92-1.6,2.58-.85,6.86-.92,9.8-.08,3.49-.15,6.99-.23,10.48-.04,1.7-.07,3.41.24,5.08.04.22.09.45.26.6.26.25.71.18.98-.05.27-.23.4-.59.51-.93.93-2.99.52-6.23,1-9.33.07-.47.17-.95.39-1.38.19-.38.47-.7.67-1.08.51-.97.41-2.12.4-3.21,0-1.32.13-2.64.42-3.93.53-2.35,2.64-3.34,4.58-4.54,6.13-3.81,13.29-4.49,20.19-5.94,2.04-.43,4.1-.83,6.14-1.26,4.39-.91,8.81-1.82,13.29-2.14,4.44-.31,8.59.15,12.92-1.24.53-.17,1.07-.37,1.48-.75.53-.49.76-1.29.59-1.99-.18-.7-.76-1.29-1.46-1.47-2.18-.57-5.05,0-7.3-.03-2.81-.05-5.62,0-8.43.15-4.75.25-9.54.79-14.3,1.56Z"/>
      <g>
        <path class="st0" d="M160.67,150.23c-1.42-2.04-4-2.97-6.47-3.16-.76-.06-1.55-.06-2.28-.3-.88-.29-1.62-.9-2.41-1.37-2.37-1.41-5.43-1.61-7.96-.5-1.61.7-2.81,1.82-3.67,3.18-1.49,2.35-1.94,5.41-1.67,8.23.5,5.07,4.23,10.03,9.13,11.62,5.97,1.93,10.82-1.58,13.89-6.46,1.07-1.69,2.03-3.5,2.42-5.46.4-1.96.17-4.12-.97-5.76ZM141.84,148.02c-.08.03-.16.06-.23.09-1.2.46-2.26,1.26-3.05,2.27.09-1.18.73-2.26,1.55-3.11.41-.42.9-.82,1.47-1,.35-.11,1.48-.22,1.56.3.02.14-.03.29-.09.42-.14.29-.34.56-.61.75-.18.13-.39.21-.6.29Z"/>
        <path class="st0" d="M156.88,137.38c-1.74,1.97-3.29,4.09-4.11,6.56-.6,1.8-.78,3.71-1,5.6-.15,1.3-1.35,1.7-1.85.35-.38-1.03.06-2.21.45-3.16.71-1.72,1.41-3.45,2.32-5.07,2.35-4.2,5.95-7.54,9.53-10.75,2.27-2.04,4.66-3.85,7.78-4.2.38-.04.81,0,1.09.26.23.21.32.7.05.92-.23.18-.6.02-.87.01-.89-.01-1.88.16-2.73.44-.76.25-1.46.65-2.13,1.08-2.39,1.55-4.4,3.6-6.38,5.65-.72.75-1.45,1.52-2.15,2.3Z"/>
      </g>
      <g>
        <path class="st0" d="M131.15,150.86c-2.47-.23-4.85,1.14-6.59,2.9-.54.54-1.05,1.14-1.7,1.54-.79.49-1.73.66-2.61.96-2.61.9-4.73,3.11-5.53,5.75-.5,1.68-.43,3.32.05,4.86.83,2.66,2.88,4.98,5.2,6.59,4.2,2.9,10.39,3.25,14.77.54,5.33-3.31,5.78-9.28,4.04-14.78-.61-1.91-1.36-3.81-2.6-5.38-1.24-1.57-3.03-2.79-5.03-2.98ZM129.6,155.47c-.3-.13-.55-.35-.74-.62-.08-.12-.16-.25-.17-.39-.03-.53,1.1-.63,1.47-.59.59.06,1.15.37,1.63.7.97.68,1.81,1.61,2.12,2.75-.97-.84-2.17-1.42-3.43-1.64-.08-.01-.16-.03-.24-.04-.22-.04-.44-.08-.64-.17Z"/>
        <path class="st0" d="M118.9,145.45c.38,2.6,1,5.15,2.35,7.38.99,1.62,2.33,3,3.63,4.38.9.96.42,2.13-.93,1.64-1.03-.37-1.65-1.47-2.12-2.39-.86-1.65-1.72-3.31-2.37-5.05-1.69-4.51-1.91-9.41-2.05-14.22-.09-3.05.06-6.04,1.82-8.65.21-.32.52-.62.9-.66.31-.04.74.21.73.56,0,.29-.37.46-.55.67-.59.67-1.09,1.54-1.42,2.37-.3.74-.45,1.53-.55,2.32-.36,2.83-.09,5.69.19,8.52.11,1.04.22,2.09.37,3.13Z"/>
      </g>
      <path class="st0" d="M186.48,221.33c0-.3,0-.63-.2-.86-.24-.3-.67-.34-1.05-.35-10.68-.41-21.36-.82-32.04-1.23-4.54-.17-9.1-.35-13.54-1.3-3.03-.64-5.97-1.64-9-2.29-6.05-1.29-12.36-1.17-18.36-2.71-5.08-1.31-9.83-3.78-14.97-4.83-4.22-.86-8.89-.84-12.31-3.45-.19,3.73-.04,7.48.44,11.18.1.8.25,1.64.8,2.23.44.46,1.06.68,1.66.87,6.78,2.18,13.86,3.26,20.93,4.06,7.75.88,15.53,1.45,23.31,2.01,16.9,1.22,33.8,2.45,50.74,2.86.73.02,1.5.03,2.15-.3,1.78-.89,1.43-4.3,1.45-5.89Z"/>
      <path class="st0" d="M138.51,204.08c0-.23.02-.47-.08-.67-.09-.21-.32-.37-.54-.32-.23.06-.35.31-.43.54-.41,1.17-.71,2.38-.89,3.61-.05.36-.1.72-.02,1.07.28,1.29,1.45.96,1.73-.02.36-1.25.18-2.92.23-4.21Z"/>
      <path class="st0" d="M116.8,206.79c.11-.88.05-1.78-.19-2.63-.08-.28-.19-.58-.44-.74-.4-.26-.96,0-1.21.4-.25.4-.26.9-.25,1.38,0,.49.01,1,.21,1.45.2.45.62.84,1.11.85.3,0,.6-.14.76-.39"/>
      <path class="st0" d="M158.77,213.31c-.21-.63-.71-4.63.73-3.29.7.65.3,2.43.06,3.16-.09.26-.31.56-.56.45-.12-.06-.18-.19-.23-.32Z"/>
      <path class="st0" d="M79.07,138.03c4.95,1.07,6.49,2.61,7.57,7.57.15.67,1.1.67,1.25,0,1.07-4.95,2.61-6.49,7.57-7.57.67-.15.67-1.1,0-1.25-4.95-1.07-6.49-2.61-7.57-7.57-.15-.67-1.1-.67-1.25,0-1.07,4.95-2.61,6.49-7.57,7.57-.67.15-.67,1.1,0,1.25Z"/>
      <path class="st0" d="M101.09,123.04c4.95,1.07,6.49,2.61,7.57,7.57.15.67,1.1.67,1.25,0,1.07-4.95,2.61-6.49,7.57-7.57.67-.15.67-1.1,0-1.25-4.95-1.07-6.49-2.61-7.57-7.57-.15-.67-1.1-.67-1.25,0-1.07,4.95-2.61,6.49-7.57,7.57-.67.15-.67,1.1,0,1.25Z"/>
      <path class="st0" d="M194.76,138.03c-4.95,1.07-6.49,2.61-7.57,7.57-.15.67-1.1.67-1.25,0-1.07-4.95-2.61-6.49-7.57-7.57-.67-.15-.67-1.1,0-1.25,4.95-1.07,6.49-2.61,7.57-7.57.15-.67,1.1-.67,1.25,0,1.07,4.95,2.61,6.49,7.57,7.57.67.15.67,1.1,0,1.25Z"/>
      <path class="st0" d="M172.74,123.04c-4.95,1.07-6.49,2.61-7.57,7.57-.15.67-1.1.67-1.25,0-1.07-4.95-2.61-6.49-7.57-7.57-.67-.15-.67-1.1,0-1.25,4.95-1.07,6.49-2.61,7.57-7.57.15-.67,1.1-.67,1.25,0,1.07,4.95,2.61,6.49,7.57,7.57.67.15.67,1.1,0,1.25Z"/>
      <path class="st0" d="M145.57,110.86c-4.95,1.07-6.49,2.61-7.57,7.57-.15.67-1.1.67-1.25,0-1.07-4.95-2.61-6.49-7.57-7.57-.67-.15-.67-1.1,0-1.25,4.95-1.07,6.49-2.61,7.57-7.57.15-.67,1.1-.67,1.25,0,1.07,4.95,2.61,6.49,7.57,7.57.67.15.67,1.1,0,1.25Z"/>
    </g>
  </g>
  <g>
    <path class="st0" d="M313.11,130.8c28.29,0,45.94,16.2,45.94,42.32s-17.77,42.32-45.94,42.32h-36.88v-1.21c4.23-.73,5.44-3.14,5.44-9.55v-29.74c8.46-2.9,12.33-7.62,12.33-15.23s-4.84-13.3-12.33-15.23v-1.09c0-5.44-3.75-9.55-10.16-9.55-5.32,0-11.73,4.47-11.73,12.82,0,4.84,3.14,8.22,7.86,8.22,3.87,0,7.86-1.69,12.57-6.89,5.56.48,10.16,5.92,10.16,11.97,0,7.01-5.8,11.85-14.27,11.85-11.61,0-19.95-10.16-19.95-22.25,0-12.7,7.5-18.74,20.67-18.74h36.27ZM313.23,212.41c14.87,0,23.46-14.39,23.46-39.29s-8.46-39.29-23.46-39.29h-10.4v78.59h10.4Z"/>
    <path class="st0" d="M391.24,196.57c2.66,8.58,8.34,13.42,16.08,13.42,6.89,0,14.63-5.56,18.38-13.42l1.93,1.45c-7.01,12.82-15.48,18.62-27.08,18.62-20.07,0-32.89-12.21-32.89-31.44s13.78-31.44,33.13-31.44c15.72,0,24.42,7.62,24.42,19.83,0,12.94-11.49,21.16-33.97,22.97ZM408.04,172.03c0-9.55-1.69-15.23-7.13-15.23-6.89,0-11.49,11.12-11.49,26.72,0,3.63.36,7.01.97,10.04,11.37-1.45,17.65-9.79,17.65-21.52Z"/>
    <path class="st0" d="M460.13,198.49c0,6.53,1.33,8.83,5.44,9.55v1.21c-4.23,0-9.67-.97-15.6-.97s-11.24.97-15.48.97v-1.21c4.23-.73,5.44-3.14,5.44-9.55v-60.69c0-6.41-1.21-8.83-5.44-9.55v-1.21c7.98,0,21.52-6.05,24.42-9.67h1.21v81.13Z"/>
    <path class="st0" d="M498.33,192.3c0,6.53,1.33,8.83,5.44,9.55v1.21c-4.23,0-9.67-.97-15.6-.97s-11.24.97-15.48.97v-1.21c4.23-.73,5.44-3.14,5.44-9.55v-32.89c0-6.41-1.21-8.83-5.44-9.55v-1.21c8.71,0,21.76-3.87,24.42-7.25h1.21v50.9ZM488.18,111.17c7.01,0,11.61,4.59,11.61,11.61s-4.59,11.73-11.61,11.73-11.73-4.72-11.73-11.73,4.72-11.61,11.73-11.61Z"/>
    <path class="st0" d="M477.33,256.91l-.85.24c-7.5-1.93-12.94-10.64-12.94-18.74,0-11.97,8.83-20.31,21.52-20.31,21.64,0,46.91,13.9,67.22,13.9,8.95,0,13.78-4.35,13.78-12.33,0-6.53-5.32-13.9-10.4-14.87-3.99,1.45-8.58,2.3-13.66,2.3-18.14,0-30.59-10.76-30.59-26.48s12.21-26.84,30.59-26.84c1.33,0,3.63,0,4.96.12-3.14-2.66-4.84-7.25-4.84-11,0-10.4,7.5-18.26,17.41-18.26,8.46,0,14.27,4.96,14.27,12.09,0,4.84-4.47,8.83-9.79,8.83-.85,0-1.69-.12-2.54-.36-2.06-4.35-6.29-7.01-9.79-7.01-3.26,0-5.68,2.3-5.68,5.56s2.3,7.62,5.92,11.24c12.7,3.14,20.8,12.7,20.8,25.63,0,10.04-4.96,17.89-13.18,22.37,8.58,3.63,15.11,13.42,15.11,23.21,0,15.72-10.16,26.72-24.66,26.72-23.09,0-44.61-13.9-60.45-13.9-9.67,0-14.63,7.25-12.21,17.89ZM542.13,156.31c-6.53,0-9.79,7.98-9.79,24.06s3.26,23.7,9.79,23.7c6.89,0,9.67-6.89,9.67-23.7s-3.26-24.06-9.67-24.06Z"/>
    <path class="st0" d="M583.88,132.01v-1.21c8.71,0,21.76-3.87,24.42-7.25h1.21v40.5c3.75-6.29,12.09-10.76,20.31-10.76,14.27,0,22.25,9.19,22.25,25.63v25.75c0,6.53,1.33,8.83,5.44,9.55v1.21c-4.23,0-9.67-.97-15.6-.97s-11.24.97-15.48.97v-1.21c4.23-.73,5.44-3.14,5.44-9.55v-25.75c0-12.57-3.02-18.98-8.95-18.98-4.96,0-10.28,3.39-13.42,10.04v34.7c0,6.53,1.33,8.83,5.44,9.55v1.21c-4.23,0-9.67-.97-15.6-.97s-11.24.97-15.48.97v-1.21c4.23-.73,5.44-3.14,5.44-9.55v-63.11c0-6.41-1.21-8.83-5.44-9.55Z"/>
    <path class="st0" d="M656.3,154.98c11.97,0,20.43-8.95,23.21-24.18h3.02v24.18h14.39v3.02h-14.39v40.75c0,10.28,2.06,14.87,6.65,14.87,7.13,0,7.13-10.28,2.9-17.17,1.09-3.87,6.41-6.89,11.24-6.89,6.29,0,10.52,3.99,10.52,10.52,0,9.79-9.07,16.56-22.13,16.56-19.71,0-29.38-8.95-29.38-27.2v-31.44h-6.05v-3.02Z"/>
    <path class="st0" d="M748.43,217.13c-18.5,0-30.95-6.89-30.95-17.05,0-5.68,4.23-9.43,10.52-9.43,5.8,0,10.28,3.26,11.37,7.25-6.29,7.25-2.3,15.72,7.38,15.72,6.41,0,10.88-3.75,10.88-9.19,0-15.48-37.6-14.15-37.6-33.97,0-10.64,10.88-16.68,28.41-16.68,16.44,0,28.41,7.38,28.41,16.44,0,4.47-3.63,7.01-9.79,7.01-4.47,0-9.07-2.3-9.67-4.84,4.35-7.74,0-15.6-7.5-15.6-4.84,0-8.1,3.39-8.1,8.46,0,14.27,37.6,12.45,37.6,34.46,0,10.64-12.09,17.41-30.95,17.41Z"/>
  </g>
  <text class="st1" transform="translate(277.66 257.15)"><tspan x="0" y="0">BY VM</tspan></text>
</svg>